<svg t="1488555712420" class="icon" style="" viewBox="0 0 1024 1024" version="1.1" xmlns="http://www.w3.org/2000/svg" p-id="3826" xmlns:xlink="http://www.w3.org/1999/xlink" width="1024" height="1024">
  <path d="M302.596748 69.753667l-46.557362 0c-12.877285 0-23.276123 10.477632-23.276123 23.277146 0 12.798491 10.398838 23.278169 23.276123 23.278169l46.557362 0c12.878309 0 23.279193-10.479679 23.279193-23.278169C325.874917 80.231299 315.475056 69.753667 302.596748 69.753667L302.596748 69.753667zM512.099249 139.508357 46.57884 139.508357l0-46.478568c0-25.598005 20.877493-46.555315 46.555315-46.555315l372.368846 0c25.717731 0 46.597271 20.956288 46.597271 46.555315L512.100272 139.508357 512.099249 139.508357zM512.099249 837.768505 46.57884 837.768505 46.57884 186.06265l465.520409 0L512.099249 837.768505 512.099249 837.768505zM512.099249 930.880159c0 25.839505-20.87954 46.557362-46.597271 46.557362L93.133132 977.437521c-25.677822 0-46.555315-20.717857-46.555315-46.557362l0-46.554292 465.520409 0L512.098226 930.880159 512.099249 930.880159zM465.501978 0 93.133132 0c-51.354622 0-93.112678 41.596374-93.112678 93.030813l0 837.850369c0 51.437509 41.758056 93.111654 93.112678 93.111654l372.368846 0c51.437509 0 93.112678-41.675168 93.112678-93.111654L558.614656 93.02979C558.614656 41.596374 516.939487 0 465.501978 0L465.501978 0zM279.357464 954.159352c12.798491 0 23.239284-10.479679 23.239284-23.279193 0-12.798491-10.440793-23.356964-23.239284-23.356964-12.877285 0-23.318078 10.558473-23.318078 23.356964C256.039386 943.679673 266.479156 954.159352 279.357464 954.159352L279.357464 954.159352z" p-id="3827">
  </path>
</svg>